<?xml version="1.0" standalone="no"?>
<!DOCTYPE svg PUBLIC "-//W3C//DTD SVG 20010904//EN"
 "http://www.w3.org/TR/2001/REC-SVG-20010904/DTD/svg10.dtd">
<svg version="1.0" xmlns="http://www.w3.org/2000/svg"
 width="128.000000pt" height="128.000000pt" viewBox="0 0 128.000000 128.000000"
 preserveAspectRatio="xMidYMid meet">

<g transform="translate(0.000000,128.000000) scale(0.100000,-0.100000)"
fill="#000000" stroke="none">
<path d="M575 1199 c-222 -22 -415 -189 -480 -413 -22 -76 -22 -216 0 -293 56
-193 205 -342 397 -398 76 -22 220 -22 294 0 100 29 175 74 250 149 114 114
165 237 165 396 0 159 -51 282 -165 396 -127 128 -280 182 -461 163z m190 -74
c91 -24 169 -71 235 -142 96 -102 141 -213 139 -343 -3 -373 -396 -614 -729
-445 -71 36 -171 134 -208 203 -109 204 -72 442 92 600 128 123 303 170 471
127z"/>
<path d="M521 656 c-80 -80 -112 -119 -108 -130 13 -33 46 -14 135 77 l91 92
95 -94 c96 -96 126 -110 126 -58 0 16 -31 53 -104 125 -57 56 -107 102 -112
102 -5 0 -61 -51 -123 -114z"/>
</g>
</svg>
