<svg version="1.0" xmlns="http://www.w3.org/2000/svg" width="170.667" height="170.667" viewBox="0 0 128 128"><path d="M57.5 8.1C35.3 10.3 16 27 9.5 49.4 7.3 57 7.3 71 9.5 78.7 15.1 98 30 112.9 49.2 118.5c7.6 2.2 22 2.2 29.4 0 10-2.9 17.5-7.4 25-14.9C115 92.2 120.1 79.9 120.1 64c0-15.9-5.1-28.2-16.5-39.6-12.7-12.8-28-18.2-46.1-16.3zm19 7.4c9.1 2.4 16.9 7.1 23.5 14.2 9.6 10.2 14.1 21.3 13.9 34.3-.3 37.3-39.6 61.4-72.9 44.5-7.1-3.6-17.1-13.4-20.8-20.3C9.3 67.8 13 44 29.4 28.2c12.8-12.3 30.3-17 47.1-12.7z"/><path d="M52.1 62.4c-8 8-11.2 11.9-10.8 13 1.3 3.3 4.6 1.4 13.5-7.7l9.1-9.2 9.5 9.4C83 77.5 86 78.9 86 73.7c0-1.6-3.1-5.3-10.4-12.5C69.9 55.6 64.9 51 64.4 51s-6.1 5.1-12.3 11.4z"/></svg>